# xmcd
#
# Track frame offsets: 
#        150
#        4652
#        81163
#        85663
#        162163
#        166668
#        247674
#
# Disc length: 3333 seconds
#
# Revision: 0
# Processed by: cddbd v1.5.2PL0 Copyright (c) Steve Scherf et al.
# Submitted via: ExactAudioCopy v0.95b4
#
DISCID=380d0307
DTITLE=Waylon Jennings - Never Say Die Radio Special
DYEAR=2007
DGENRE=Country
TTITLE0=Billboard
TTITLE1=Segment 1
TTITLE2=Break 1
TTITLE3=Segment 2
TTITLE4=Break 2
TTITLE5=Segment 3
TTITLE6=Promo Spot
EXTD=
EXTT0=
EXTT1=
EXTT2=
EXTT3=
EXTT4=
EXTT5=
EXTT6=
PLAYORDER=
